<mxfile host="app.diagrams.net" modified="2024-05-30T01:09:40.467Z" agent="Mozilla/5.0 (Windows NT 10.0; Win64; x64) AppleWebKit/537.36 (KHTML, like Gecko) Chrome/125.0.0.0 Safari/537.36" etag="3Ie9yJy6L_V_s3iI44WY" version="24.4.10" type="google">
  <diagram id="C5RBs43oDa-KdzZeNtuy" name="Page-1">
    <mxGraphModel grid="1" page="1" gridSize="10" guides="1" tooltips="1" connect="1" arrows="1" fold="1" pageScale="1" pageWidth="827" pageHeight="1169" math="0" shadow="0">
      <root>
        <mxCell id="WIyWlLk6GJQsqaUBKTNV-0" />
        <mxCell id="WIyWlLk6GJQsqaUBKTNV-1" parent="WIyWlLk6GJQsqaUBKTNV-0" />
        <mxCell id="YwB4W4zjYoKuDJUo0uXH-9" value="Banda" style="shape=table;startSize=30;container=1;collapsible=1;childLayout=tableLayout;fixedRows=1;rowLines=0;fontStyle=1;align=center;resizeLast=1;html=1;" vertex="1" parent="WIyWlLk6GJQsqaUBKTNV-1">
          <mxGeometry x="70" y="90" width="180" height="370" as="geometry" />
        </mxCell>
        <mxCell id="YwB4W4zjYoKuDJUo0uXH-10" value="" style="shape=tableRow;horizontal=0;startSize=0;swimlaneHead=0;swimlaneBody=0;fillColor=none;collapsible=0;dropTarget=0;points=[[0,0.5],[1,0.5]];portConstraint=eastwest;top=0;left=0;right=0;bottom=1;" vertex="1" parent="YwB4W4zjYoKuDJUo0uXH-9">
          <mxGeometry y="30" width="180" height="40" as="geometry" />
        </mxCell>
        <mxCell id="YwB4W4zjYoKuDJUo0uXH-11" value="PK" style="shape=partialRectangle;connectable=0;fillColor=none;top=0;left=0;bottom=0;right=0;fontStyle=1;overflow=hidden;whiteSpace=wrap;html=1;" vertex="1" parent="YwB4W4zjYoKuDJUo0uXH-10">
          <mxGeometry width="30" height="40" as="geometry">
            <mxRectangle width="30" height="40" as="alternateBounds" />
          </mxGeometry>
        </mxCell>
        <mxCell id="YwB4W4zjYoKuDJUo0uXH-12" value="BandaID" style="shape=partialRectangle;connectable=0;fillColor=none;top=0;left=0;bottom=0;right=0;align=left;spacingLeft=6;fontStyle=5;overflow=hidden;whiteSpace=wrap;html=1;" vertex="1" parent="YwB4W4zjYoKuDJUo0uXH-10">
          <mxGeometry x="30" width="150" height="40" as="geometry">
            <mxRectangle width="150" height="40" as="alternateBounds" />
          </mxGeometry>
        </mxCell>
        <mxCell id="YwB4W4zjYoKuDJUo0uXH-13" value="" style="shape=tableRow;horizontal=0;startSize=0;swimlaneHead=0;swimlaneBody=0;fillColor=none;collapsible=0;dropTarget=0;points=[[0,0.5],[1,0.5]];portConstraint=eastwest;top=0;left=0;right=0;bottom=0;" vertex="1" parent="YwB4W4zjYoKuDJUo0uXH-9">
          <mxGeometry y="70" width="180" height="30" as="geometry" />
        </mxCell>
        <mxCell id="YwB4W4zjYoKuDJUo0uXH-14" value="" style="shape=partialRectangle;connectable=0;fillColor=none;top=0;left=0;bottom=0;right=0;editable=1;overflow=hidden;whiteSpace=wrap;html=1;" vertex="1" parent="YwB4W4zjYoKuDJUo0uXH-13">
          <mxGeometry width="30" height="30" as="geometry">
            <mxRectangle width="30" height="30" as="alternateBounds" />
          </mxGeometry>
        </mxCell>
        <mxCell id="YwB4W4zjYoKuDJUo0uXH-15" value="&lt;span style=&quot;text-wrap: nowrap;&quot;&gt;banda_logo&lt;/span&gt;" style="shape=partialRectangle;connectable=0;fillColor=none;top=0;left=0;bottom=0;right=0;align=left;spacingLeft=6;overflow=hidden;whiteSpace=wrap;html=1;" vertex="1" parent="YwB4W4zjYoKuDJUo0uXH-13">
          <mxGeometry x="30" width="150" height="30" as="geometry">
            <mxRectangle width="150" height="30" as="alternateBounds" />
          </mxGeometry>
        </mxCell>
        <mxCell id="YwB4W4zjYoKuDJUo0uXH-23" value="" style="shape=tableRow;horizontal=0;startSize=0;swimlaneHead=0;swimlaneBody=0;fillColor=none;collapsible=0;dropTarget=0;points=[[0,0.5],[1,0.5]];portConstraint=eastwest;top=0;left=0;right=0;bottom=0;" vertex="1" parent="YwB4W4zjYoKuDJUo0uXH-9">
          <mxGeometry y="100" width="180" height="30" as="geometry" />
        </mxCell>
        <mxCell id="YwB4W4zjYoKuDJUo0uXH-24" value="" style="shape=partialRectangle;connectable=0;fillColor=none;top=0;left=0;bottom=0;right=0;editable=1;overflow=hidden;" vertex="1" parent="YwB4W4zjYoKuDJUo0uXH-23">
          <mxGeometry width="30" height="30" as="geometry">
            <mxRectangle width="30" height="30" as="alternateBounds" />
          </mxGeometry>
        </mxCell>
        <mxCell id="YwB4W4zjYoKuDJUo0uXH-25" value="banda_nome" style="shape=partialRectangle;connectable=0;fillColor=none;top=0;left=0;bottom=0;right=0;align=left;spacingLeft=6;overflow=hidden;" vertex="1" parent="YwB4W4zjYoKuDJUo0uXH-23">
          <mxGeometry x="30" width="150" height="30" as="geometry">
            <mxRectangle width="150" height="30" as="alternateBounds" />
          </mxGeometry>
        </mxCell>
        <mxCell id="YwB4W4zjYoKuDJUo0uXH-16" value="" style="shape=tableRow;horizontal=0;startSize=0;swimlaneHead=0;swimlaneBody=0;fillColor=none;collapsible=0;dropTarget=0;points=[[0,0.5],[1,0.5]];portConstraint=eastwest;top=0;left=0;right=0;bottom=0;" vertex="1" parent="YwB4W4zjYoKuDJUo0uXH-9">
          <mxGeometry y="130" width="180" height="30" as="geometry" />
        </mxCell>
        <mxCell id="YwB4W4zjYoKuDJUo0uXH-17" value="" style="shape=partialRectangle;connectable=0;fillColor=none;top=0;left=0;bottom=0;right=0;editable=1;overflow=hidden;whiteSpace=wrap;html=1;" vertex="1" parent="YwB4W4zjYoKuDJUo0uXH-16">
          <mxGeometry width="30" height="30" as="geometry">
            <mxRectangle width="30" height="30" as="alternateBounds" />
          </mxGeometry>
        </mxCell>
        <mxCell id="YwB4W4zjYoKuDJUo0uXH-18" value="&lt;span style=&quot;text-wrap: nowrap;&quot;&gt;banda_email&lt;/span&gt;" style="shape=partialRectangle;connectable=0;fillColor=none;top=0;left=0;bottom=0;right=0;align=left;spacingLeft=6;overflow=hidden;whiteSpace=wrap;html=1;" vertex="1" parent="YwB4W4zjYoKuDJUo0uXH-16">
          <mxGeometry x="30" width="150" height="30" as="geometry">
            <mxRectangle width="150" height="30" as="alternateBounds" />
          </mxGeometry>
        </mxCell>
        <mxCell id="YwB4W4zjYoKuDJUo0uXH-26" value="" style="shape=tableRow;horizontal=0;startSize=0;swimlaneHead=0;swimlaneBody=0;fillColor=none;collapsible=0;dropTarget=0;points=[[0,0.5],[1,0.5]];portConstraint=eastwest;top=0;left=0;right=0;bottom=0;" vertex="1" parent="YwB4W4zjYoKuDJUo0uXH-9">
          <mxGeometry y="160" width="180" height="30" as="geometry" />
        </mxCell>
        <mxCell id="YwB4W4zjYoKuDJUo0uXH-27" value="" style="shape=partialRectangle;connectable=0;fillColor=none;top=0;left=0;bottom=0;right=0;editable=1;overflow=hidden;" vertex="1" parent="YwB4W4zjYoKuDJUo0uXH-26">
          <mxGeometry width="30" height="30" as="geometry">
            <mxRectangle width="30" height="30" as="alternateBounds" />
          </mxGeometry>
        </mxCell>
        <mxCell id="YwB4W4zjYoKuDJUo0uXH-28" value="banda_facebook" style="shape=partialRectangle;connectable=0;fillColor=none;top=0;left=0;bottom=0;right=0;align=left;spacingLeft=6;overflow=hidden;" vertex="1" parent="YwB4W4zjYoKuDJUo0uXH-26">
          <mxGeometry x="30" width="150" height="30" as="geometry">
            <mxRectangle width="150" height="30" as="alternateBounds" />
          </mxGeometry>
        </mxCell>
        <mxCell id="YwB4W4zjYoKuDJUo0uXH-19" value="" style="shape=tableRow;horizontal=0;startSize=0;swimlaneHead=0;swimlaneBody=0;fillColor=none;collapsible=0;dropTarget=0;points=[[0,0.5],[1,0.5]];portConstraint=eastwest;top=0;left=0;right=0;bottom=0;" vertex="1" parent="YwB4W4zjYoKuDJUo0uXH-9">
          <mxGeometry y="190" width="180" height="30" as="geometry" />
        </mxCell>
        <mxCell id="YwB4W4zjYoKuDJUo0uXH-20" value="" style="shape=partialRectangle;connectable=0;fillColor=none;top=0;left=0;bottom=0;right=0;editable=1;overflow=hidden;whiteSpace=wrap;html=1;" vertex="1" parent="YwB4W4zjYoKuDJUo0uXH-19">
          <mxGeometry width="30" height="30" as="geometry">
            <mxRectangle width="30" height="30" as="alternateBounds" />
          </mxGeometry>
        </mxCell>
        <mxCell id="YwB4W4zjYoKuDJUo0uXH-21" value="&lt;span style=&quot;text-wrap: nowrap;&quot;&gt;banda_instragram&lt;/span&gt;" style="shape=partialRectangle;connectable=0;fillColor=none;top=0;left=0;bottom=0;right=0;align=left;spacingLeft=6;overflow=hidden;whiteSpace=wrap;html=1;" vertex="1" parent="YwB4W4zjYoKuDJUo0uXH-19">
          <mxGeometry x="30" width="150" height="30" as="geometry">
            <mxRectangle width="150" height="30" as="alternateBounds" />
          </mxGeometry>
        </mxCell>
        <mxCell id="YwB4W4zjYoKuDJUo0uXH-30" value="" style="shape=tableRow;horizontal=0;startSize=0;swimlaneHead=0;swimlaneBody=0;fillColor=none;collapsible=0;dropTarget=0;points=[[0,0.5],[1,0.5]];portConstraint=eastwest;top=0;left=0;right=0;bottom=0;" vertex="1" parent="YwB4W4zjYoKuDJUo0uXH-9">
          <mxGeometry y="220" width="180" height="30" as="geometry" />
        </mxCell>
        <mxCell id="YwB4W4zjYoKuDJUo0uXH-31" value="" style="shape=partialRectangle;connectable=0;fillColor=none;top=0;left=0;bottom=0;right=0;editable=1;overflow=hidden;" vertex="1" parent="YwB4W4zjYoKuDJUo0uXH-30">
          <mxGeometry width="30" height="30" as="geometry">
            <mxRectangle width="30" height="30" as="alternateBounds" />
          </mxGeometry>
        </mxCell>
        <mxCell id="YwB4W4zjYoKuDJUo0uXH-32" value="banda_youtube" style="shape=partialRectangle;connectable=0;fillColor=none;top=0;left=0;bottom=0;right=0;align=left;spacingLeft=6;overflow=hidden;" vertex="1" parent="YwB4W4zjYoKuDJUo0uXH-30">
          <mxGeometry x="30" width="150" height="30" as="geometry">
            <mxRectangle width="150" height="30" as="alternateBounds" />
          </mxGeometry>
        </mxCell>
        <mxCell id="YwB4W4zjYoKuDJUo0uXH-33" value="" style="shape=tableRow;horizontal=0;startSize=0;swimlaneHead=0;swimlaneBody=0;fillColor=none;collapsible=0;dropTarget=0;points=[[0,0.5],[1,0.5]];portConstraint=eastwest;top=0;left=0;right=0;bottom=0;" vertex="1" parent="YwB4W4zjYoKuDJUo0uXH-9">
          <mxGeometry y="250" width="180" height="30" as="geometry" />
        </mxCell>
        <mxCell id="YwB4W4zjYoKuDJUo0uXH-34" value="" style="shape=partialRectangle;connectable=0;fillColor=none;top=0;left=0;bottom=0;right=0;editable=1;overflow=hidden;" vertex="1" parent="YwB4W4zjYoKuDJUo0uXH-33">
          <mxGeometry width="30" height="30" as="geometry">
            <mxRectangle width="30" height="30" as="alternateBounds" />
          </mxGeometry>
        </mxCell>
        <mxCell id="YwB4W4zjYoKuDJUo0uXH-35" value="banda_tiktok" style="shape=partialRectangle;connectable=0;fillColor=none;top=0;left=0;bottom=0;right=0;align=left;spacingLeft=6;overflow=hidden;" vertex="1" parent="YwB4W4zjYoKuDJUo0uXH-33">
          <mxGeometry x="30" width="150" height="30" as="geometry">
            <mxRectangle width="150" height="30" as="alternateBounds" />
          </mxGeometry>
        </mxCell>
        <mxCell id="YwB4W4zjYoKuDJUo0uXH-37" value="" style="shape=tableRow;horizontal=0;startSize=0;swimlaneHead=0;swimlaneBody=0;fillColor=none;collapsible=0;dropTarget=0;points=[[0,0.5],[1,0.5]];portConstraint=eastwest;top=0;left=0;right=0;bottom=0;" vertex="1" parent="YwB4W4zjYoKuDJUo0uXH-9">
          <mxGeometry y="280" width="180" height="30" as="geometry" />
        </mxCell>
        <mxCell id="YwB4W4zjYoKuDJUo0uXH-38" value="" style="shape=partialRectangle;connectable=0;fillColor=none;top=0;left=0;bottom=0;right=0;editable=1;overflow=hidden;" vertex="1" parent="YwB4W4zjYoKuDJUo0uXH-37">
          <mxGeometry width="30" height="30" as="geometry">
            <mxRectangle width="30" height="30" as="alternateBounds" />
          </mxGeometry>
        </mxCell>
        <mxCell id="YwB4W4zjYoKuDJUo0uXH-39" value="banda_whatsapp" style="shape=partialRectangle;connectable=0;fillColor=none;top=0;left=0;bottom=0;right=0;align=left;spacingLeft=6;overflow=hidden;" vertex="1" parent="YwB4W4zjYoKuDJUo0uXH-37">
          <mxGeometry x="30" width="150" height="30" as="geometry">
            <mxRectangle width="150" height="30" as="alternateBounds" />
          </mxGeometry>
        </mxCell>
        <mxCell id="YwB4W4zjYoKuDJUo0uXH-40" value="" style="shape=tableRow;horizontal=0;startSize=0;swimlaneHead=0;swimlaneBody=0;fillColor=none;collapsible=0;dropTarget=0;points=[[0,0.5],[1,0.5]];portConstraint=eastwest;top=0;left=0;right=0;bottom=0;" vertex="1" parent="YwB4W4zjYoKuDJUo0uXH-9">
          <mxGeometry y="310" width="180" height="30" as="geometry" />
        </mxCell>
        <mxCell id="YwB4W4zjYoKuDJUo0uXH-41" value="" style="shape=partialRectangle;connectable=0;fillColor=none;top=0;left=0;bottom=0;right=0;editable=1;overflow=hidden;" vertex="1" parent="YwB4W4zjYoKuDJUo0uXH-40">
          <mxGeometry width="30" height="30" as="geometry">
            <mxRectangle width="30" height="30" as="alternateBounds" />
          </mxGeometry>
        </mxCell>
        <mxCell id="YwB4W4zjYoKuDJUo0uXH-42" value="banda_cidade" style="shape=partialRectangle;connectable=0;fillColor=none;top=0;left=0;bottom=0;right=0;align=left;spacingLeft=6;overflow=hidden;" vertex="1" parent="YwB4W4zjYoKuDJUo0uXH-40">
          <mxGeometry x="30" width="150" height="30" as="geometry">
            <mxRectangle width="150" height="30" as="alternateBounds" />
          </mxGeometry>
        </mxCell>
        <mxCell id="YwB4W4zjYoKuDJUo0uXH-46" value="" style="shape=tableRow;horizontal=0;startSize=0;swimlaneHead=0;swimlaneBody=0;fillColor=none;collapsible=0;dropTarget=0;points=[[0,0.5],[1,0.5]];portConstraint=eastwest;top=0;left=0;right=0;bottom=0;" vertex="1" parent="YwB4W4zjYoKuDJUo0uXH-9">
          <mxGeometry y="340" width="180" height="30" as="geometry" />
        </mxCell>
        <mxCell id="YwB4W4zjYoKuDJUo0uXH-47" value="" style="shape=partialRectangle;connectable=0;fillColor=none;top=0;left=0;bottom=0;right=0;editable=1;overflow=hidden;" vertex="1" parent="YwB4W4zjYoKuDJUo0uXH-46">
          <mxGeometry width="30" height="30" as="geometry">
            <mxRectangle width="30" height="30" as="alternateBounds" />
          </mxGeometry>
        </mxCell>
        <mxCell id="YwB4W4zjYoKuDJUo0uXH-48" value="banda_historia" style="shape=partialRectangle;connectable=0;fillColor=none;top=0;left=0;bottom=0;right=0;align=left;spacingLeft=6;overflow=hidden;" vertex="1" parent="YwB4W4zjYoKuDJUo0uXH-46">
          <mxGeometry x="30" width="150" height="30" as="geometry">
            <mxRectangle width="150" height="30" as="alternateBounds" />
          </mxGeometry>
        </mxCell>
        <mxCell id="YwB4W4zjYoKuDJUo0uXH-50" value="Integrantes" style="shape=table;startSize=30;container=1;collapsible=1;childLayout=tableLayout;fixedRows=1;rowLines=0;fontStyle=1;align=center;resizeLast=1;html=1;" vertex="1" parent="WIyWlLk6GJQsqaUBKTNV-1">
          <mxGeometry x="330" y="40" width="180" height="270" as="geometry" />
        </mxCell>
        <mxCell id="YwB4W4zjYoKuDJUo0uXH-51" value="" style="shape=tableRow;horizontal=0;startSize=0;swimlaneHead=0;swimlaneBody=0;fillColor=none;collapsible=0;dropTarget=0;points=[[0,0.5],[1,0.5]];portConstraint=eastwest;top=0;left=0;right=0;bottom=1;" vertex="1" parent="YwB4W4zjYoKuDJUo0uXH-50">
          <mxGeometry y="30" width="180" height="30" as="geometry" />
        </mxCell>
        <mxCell id="YwB4W4zjYoKuDJUo0uXH-52" value="PK" style="shape=partialRectangle;connectable=0;fillColor=none;top=0;left=0;bottom=0;right=0;fontStyle=1;overflow=hidden;whiteSpace=wrap;html=1;" vertex="1" parent="YwB4W4zjYoKuDJUo0uXH-51">
          <mxGeometry width="30" height="30" as="geometry">
            <mxRectangle width="30" height="30" as="alternateBounds" />
          </mxGeometry>
        </mxCell>
        <mxCell id="YwB4W4zjYoKuDJUo0uXH-53" value="IntegranteID" style="shape=partialRectangle;connectable=0;fillColor=none;top=0;left=0;bottom=0;right=0;align=left;spacingLeft=6;fontStyle=5;overflow=hidden;whiteSpace=wrap;html=1;" vertex="1" parent="YwB4W4zjYoKuDJUo0uXH-51">
          <mxGeometry x="30" width="150" height="30" as="geometry">
            <mxRectangle width="150" height="30" as="alternateBounds" />
          </mxGeometry>
        </mxCell>
        <mxCell id="YwB4W4zjYoKuDJUo0uXH-54" value="" style="shape=tableRow;horizontal=0;startSize=0;swimlaneHead=0;swimlaneBody=0;fillColor=none;collapsible=0;dropTarget=0;points=[[0,0.5],[1,0.5]];portConstraint=eastwest;top=0;left=0;right=0;bottom=0;" vertex="1" parent="YwB4W4zjYoKuDJUo0uXH-50">
          <mxGeometry y="60" width="180" height="30" as="geometry" />
        </mxCell>
        <mxCell id="YwB4W4zjYoKuDJUo0uXH-55" value="" style="shape=partialRectangle;connectable=0;fillColor=none;top=0;left=0;bottom=0;right=0;editable=1;overflow=hidden;whiteSpace=wrap;html=1;" vertex="1" parent="YwB4W4zjYoKuDJUo0uXH-54">
          <mxGeometry width="30" height="30" as="geometry">
            <mxRectangle width="30" height="30" as="alternateBounds" />
          </mxGeometry>
        </mxCell>
        <mxCell id="YwB4W4zjYoKuDJUo0uXH-56" value="integrante_nome" style="shape=partialRectangle;connectable=0;fillColor=none;top=0;left=0;bottom=0;right=0;align=left;spacingLeft=6;overflow=hidden;whiteSpace=wrap;html=1;" vertex="1" parent="YwB4W4zjYoKuDJUo0uXH-54">
          <mxGeometry x="30" width="150" height="30" as="geometry">
            <mxRectangle width="150" height="30" as="alternateBounds" />
          </mxGeometry>
        </mxCell>
        <mxCell id="YwB4W4zjYoKuDJUo0uXH-57" value="" style="shape=tableRow;horizontal=0;startSize=0;swimlaneHead=0;swimlaneBody=0;fillColor=none;collapsible=0;dropTarget=0;points=[[0,0.5],[1,0.5]];portConstraint=eastwest;top=0;left=0;right=0;bottom=0;" vertex="1" parent="YwB4W4zjYoKuDJUo0uXH-50">
          <mxGeometry y="90" width="180" height="30" as="geometry" />
        </mxCell>
        <mxCell id="YwB4W4zjYoKuDJUo0uXH-58" value="" style="shape=partialRectangle;connectable=0;fillColor=none;top=0;left=0;bottom=0;right=0;editable=1;overflow=hidden;whiteSpace=wrap;html=1;" vertex="1" parent="YwB4W4zjYoKuDJUo0uXH-57">
          <mxGeometry width="30" height="30" as="geometry">
            <mxRectangle width="30" height="30" as="alternateBounds" />
          </mxGeometry>
        </mxCell>
        <mxCell id="YwB4W4zjYoKuDJUo0uXH-59" value="integrante_descricao" style="shape=partialRectangle;connectable=0;fillColor=none;top=0;left=0;bottom=0;right=0;align=left;spacingLeft=6;overflow=hidden;whiteSpace=wrap;html=1;" vertex="1" parent="YwB4W4zjYoKuDJUo0uXH-57">
          <mxGeometry x="30" width="150" height="30" as="geometry">
            <mxRectangle width="150" height="30" as="alternateBounds" />
          </mxGeometry>
        </mxCell>
        <mxCell id="YwB4W4zjYoKuDJUo0uXH-60" value="" style="shape=tableRow;horizontal=0;startSize=0;swimlaneHead=0;swimlaneBody=0;fillColor=none;collapsible=0;dropTarget=0;points=[[0,0.5],[1,0.5]];portConstraint=eastwest;top=0;left=0;right=0;bottom=0;" vertex="1" parent="YwB4W4zjYoKuDJUo0uXH-50">
          <mxGeometry y="120" width="180" height="30" as="geometry" />
        </mxCell>
        <mxCell id="YwB4W4zjYoKuDJUo0uXH-61" value="" style="shape=partialRectangle;connectable=0;fillColor=none;top=0;left=0;bottom=0;right=0;editable=1;overflow=hidden;whiteSpace=wrap;html=1;" vertex="1" parent="YwB4W4zjYoKuDJUo0uXH-60">
          <mxGeometry width="30" height="30" as="geometry">
            <mxRectangle width="30" height="30" as="alternateBounds" />
          </mxGeometry>
        </mxCell>
        <mxCell id="YwB4W4zjYoKuDJUo0uXH-62" value="integrante_facebook" style="shape=partialRectangle;connectable=0;fillColor=none;top=0;left=0;bottom=0;right=0;align=left;spacingLeft=6;overflow=hidden;whiteSpace=wrap;html=1;" vertex="1" parent="YwB4W4zjYoKuDJUo0uXH-60">
          <mxGeometry x="30" width="150" height="30" as="geometry">
            <mxRectangle width="150" height="30" as="alternateBounds" />
          </mxGeometry>
        </mxCell>
        <mxCell id="YwB4W4zjYoKuDJUo0uXH-64" value="" style="shape=tableRow;horizontal=0;startSize=0;swimlaneHead=0;swimlaneBody=0;fillColor=none;collapsible=0;dropTarget=0;points=[[0,0.5],[1,0.5]];portConstraint=eastwest;top=0;left=0;right=0;bottom=0;" vertex="1" parent="YwB4W4zjYoKuDJUo0uXH-50">
          <mxGeometry y="150" width="180" height="30" as="geometry" />
        </mxCell>
        <mxCell id="YwB4W4zjYoKuDJUo0uXH-65" value="" style="shape=partialRectangle;connectable=0;fillColor=none;top=0;left=0;bottom=0;right=0;editable=1;overflow=hidden;" vertex="1" parent="YwB4W4zjYoKuDJUo0uXH-64">
          <mxGeometry width="30" height="30" as="geometry">
            <mxRectangle width="30" height="30" as="alternateBounds" />
          </mxGeometry>
        </mxCell>
        <mxCell id="YwB4W4zjYoKuDJUo0uXH-66" value="integrante_instagram" style="shape=partialRectangle;connectable=0;fillColor=none;top=0;left=0;bottom=0;right=0;align=left;spacingLeft=6;overflow=hidden;" vertex="1" parent="YwB4W4zjYoKuDJUo0uXH-64">
          <mxGeometry x="30" width="150" height="30" as="geometry">
            <mxRectangle width="150" height="30" as="alternateBounds" />
          </mxGeometry>
        </mxCell>
        <mxCell id="YwB4W4zjYoKuDJUo0uXH-67" value="" style="shape=tableRow;horizontal=0;startSize=0;swimlaneHead=0;swimlaneBody=0;fillColor=none;collapsible=0;dropTarget=0;points=[[0,0.5],[1,0.5]];portConstraint=eastwest;top=0;left=0;right=0;bottom=0;" vertex="1" parent="YwB4W4zjYoKuDJUo0uXH-50">
          <mxGeometry y="180" width="180" height="30" as="geometry" />
        </mxCell>
        <mxCell id="YwB4W4zjYoKuDJUo0uXH-68" value="" style="shape=partialRectangle;connectable=0;fillColor=none;top=0;left=0;bottom=0;right=0;editable=1;overflow=hidden;" vertex="1" parent="YwB4W4zjYoKuDJUo0uXH-67">
          <mxGeometry width="30" height="30" as="geometry">
            <mxRectangle width="30" height="30" as="alternateBounds" />
          </mxGeometry>
        </mxCell>
        <mxCell id="YwB4W4zjYoKuDJUo0uXH-69" value="integrante_tiktok" style="shape=partialRectangle;connectable=0;fillColor=none;top=0;left=0;bottom=0;right=0;align=left;spacingLeft=6;overflow=hidden;" vertex="1" parent="YwB4W4zjYoKuDJUo0uXH-67">
          <mxGeometry x="30" width="150" height="30" as="geometry">
            <mxRectangle width="150" height="30" as="alternateBounds" />
          </mxGeometry>
        </mxCell>
        <mxCell id="YwB4W4zjYoKuDJUo0uXH-70" value="" style="shape=tableRow;horizontal=0;startSize=0;swimlaneHead=0;swimlaneBody=0;fillColor=none;collapsible=0;dropTarget=0;points=[[0,0.5],[1,0.5]];portConstraint=eastwest;top=0;left=0;right=0;bottom=0;" vertex="1" parent="YwB4W4zjYoKuDJUo0uXH-50">
          <mxGeometry y="210" width="180" height="60" as="geometry" />
        </mxCell>
        <mxCell id="YwB4W4zjYoKuDJUo0uXH-71" value="" style="shape=partialRectangle;connectable=0;fillColor=none;top=0;left=0;bottom=0;right=0;editable=1;overflow=hidden;" vertex="1" parent="YwB4W4zjYoKuDJUo0uXH-70">
          <mxGeometry width="30" height="60" as="geometry">
            <mxRectangle width="30" height="60" as="alternateBounds" />
          </mxGeometry>
        </mxCell>
        <mxCell id="YwB4W4zjYoKuDJUo0uXH-72" value="integrante_whatsapp" style="shape=partialRectangle;connectable=0;fillColor=none;top=0;left=0;bottom=0;right=0;align=left;spacingLeft=6;overflow=hidden;" vertex="1" parent="YwB4W4zjYoKuDJUo0uXH-70">
          <mxGeometry x="30" width="150" height="60" as="geometry">
            <mxRectangle width="150" height="60" as="alternateBounds" />
          </mxGeometry>
        </mxCell>
        <mxCell id="YwB4W4zjYoKuDJUo0uXH-74" value="Banda Mídia" style="shape=table;startSize=30;container=1;collapsible=1;childLayout=tableLayout;fixedRows=1;rowLines=0;fontStyle=1;align=center;resizeLast=1;html=1;" vertex="1" parent="WIyWlLk6GJQsqaUBKTNV-1">
          <mxGeometry x="200" y="525" width="180" height="120" as="geometry" />
        </mxCell>
        <mxCell id="YwB4W4zjYoKuDJUo0uXH-75" value="" style="shape=tableRow;horizontal=0;startSize=0;swimlaneHead=0;swimlaneBody=0;fillColor=none;collapsible=0;dropTarget=0;points=[[0,0.5],[1,0.5]];portConstraint=eastwest;top=0;left=0;right=0;bottom=1;" vertex="1" parent="YwB4W4zjYoKuDJUo0uXH-74">
          <mxGeometry y="30" width="180" height="30" as="geometry" />
        </mxCell>
        <mxCell id="YwB4W4zjYoKuDJUo0uXH-76" value="PK" style="shape=partialRectangle;connectable=0;fillColor=none;top=0;left=0;bottom=0;right=0;fontStyle=1;overflow=hidden;whiteSpace=wrap;html=1;" vertex="1" parent="YwB4W4zjYoKuDJUo0uXH-75">
          <mxGeometry width="30" height="30" as="geometry">
            <mxRectangle width="30" height="30" as="alternateBounds" />
          </mxGeometry>
        </mxCell>
        <mxCell id="YwB4W4zjYoKuDJUo0uXH-77" value="MidiaID" style="shape=partialRectangle;connectable=0;fillColor=none;top=0;left=0;bottom=0;right=0;align=left;spacingLeft=6;fontStyle=5;overflow=hidden;whiteSpace=wrap;html=1;" vertex="1" parent="YwB4W4zjYoKuDJUo0uXH-75">
          <mxGeometry x="30" width="150" height="30" as="geometry">
            <mxRectangle width="150" height="30" as="alternateBounds" />
          </mxGeometry>
        </mxCell>
        <mxCell id="YwB4W4zjYoKuDJUo0uXH-78" value="" style="shape=tableRow;horizontal=0;startSize=0;swimlaneHead=0;swimlaneBody=0;fillColor=none;collapsible=0;dropTarget=0;points=[[0,0.5],[1,0.5]];portConstraint=eastwest;top=0;left=0;right=0;bottom=0;" vertex="1" parent="YwB4W4zjYoKuDJUo0uXH-74">
          <mxGeometry y="60" width="180" height="30" as="geometry" />
        </mxCell>
        <mxCell id="YwB4W4zjYoKuDJUo0uXH-79" value="" style="shape=partialRectangle;connectable=0;fillColor=none;top=0;left=0;bottom=0;right=0;editable=1;overflow=hidden;whiteSpace=wrap;html=1;" vertex="1" parent="YwB4W4zjYoKuDJUo0uXH-78">
          <mxGeometry width="30" height="30" as="geometry">
            <mxRectangle width="30" height="30" as="alternateBounds" />
          </mxGeometry>
        </mxCell>
        <mxCell id="YwB4W4zjYoKuDJUo0uXH-80" value="midia_tipo" style="shape=partialRectangle;connectable=0;fillColor=none;top=0;left=0;bottom=0;right=0;align=left;spacingLeft=6;overflow=hidden;whiteSpace=wrap;html=1;" vertex="1" parent="YwB4W4zjYoKuDJUo0uXH-78">
          <mxGeometry x="30" width="150" height="30" as="geometry">
            <mxRectangle width="150" height="30" as="alternateBounds" />
          </mxGeometry>
        </mxCell>
        <mxCell id="YwB4W4zjYoKuDJUo0uXH-81" value="" style="shape=tableRow;horizontal=0;startSize=0;swimlaneHead=0;swimlaneBody=0;fillColor=none;collapsible=0;dropTarget=0;points=[[0,0.5],[1,0.5]];portConstraint=eastwest;top=0;left=0;right=0;bottom=0;" vertex="1" parent="YwB4W4zjYoKuDJUo0uXH-74">
          <mxGeometry y="90" width="180" height="30" as="geometry" />
        </mxCell>
        <mxCell id="YwB4W4zjYoKuDJUo0uXH-82" value="" style="shape=partialRectangle;connectable=0;fillColor=none;top=0;left=0;bottom=0;right=0;editable=1;overflow=hidden;whiteSpace=wrap;html=1;" vertex="1" parent="YwB4W4zjYoKuDJUo0uXH-81">
          <mxGeometry width="30" height="30" as="geometry">
            <mxRectangle width="30" height="30" as="alternateBounds" />
          </mxGeometry>
        </mxCell>
        <mxCell id="YwB4W4zjYoKuDJUo0uXH-83" value="midia_arquivo" style="shape=partialRectangle;connectable=0;fillColor=none;top=0;left=0;bottom=0;right=0;align=left;spacingLeft=6;overflow=hidden;whiteSpace=wrap;html=1;" vertex="1" parent="YwB4W4zjYoKuDJUo0uXH-81">
          <mxGeometry x="30" width="150" height="30" as="geometry">
            <mxRectangle width="150" height="30" as="alternateBounds" />
          </mxGeometry>
        </mxCell>
        <mxCell id="YwB4W4zjYoKuDJUo0uXH-118" value="Menu" style="shape=table;startSize=30;container=1;collapsible=1;childLayout=tableLayout;fixedRows=1;rowLines=0;fontStyle=1;align=center;resizeLast=1;html=1;" vertex="1" parent="WIyWlLk6GJQsqaUBKTNV-1">
          <mxGeometry x="560" y="60" width="180" height="120" as="geometry" />
        </mxCell>
        <mxCell id="YwB4W4zjYoKuDJUo0uXH-119" value="" style="shape=tableRow;horizontal=0;startSize=0;swimlaneHead=0;swimlaneBody=0;fillColor=none;collapsible=0;dropTarget=0;points=[[0,0.5],[1,0.5]];portConstraint=eastwest;top=0;left=0;right=0;bottom=1;" vertex="1" parent="YwB4W4zjYoKuDJUo0uXH-118">
          <mxGeometry y="30" width="180" height="30" as="geometry" />
        </mxCell>
        <mxCell id="YwB4W4zjYoKuDJUo0uXH-120" value="PK" style="shape=partialRectangle;connectable=0;fillColor=none;top=0;left=0;bottom=0;right=0;fontStyle=1;overflow=hidden;whiteSpace=wrap;html=1;" vertex="1" parent="YwB4W4zjYoKuDJUo0uXH-119">
          <mxGeometry width="30" height="30" as="geometry">
            <mxRectangle width="30" height="30" as="alternateBounds" />
          </mxGeometry>
        </mxCell>
        <mxCell id="YwB4W4zjYoKuDJUo0uXH-121" value="MenuID" style="shape=partialRectangle;connectable=0;fillColor=none;top=0;left=0;bottom=0;right=0;align=left;spacingLeft=6;fontStyle=5;overflow=hidden;whiteSpace=wrap;html=1;" vertex="1" parent="YwB4W4zjYoKuDJUo0uXH-119">
          <mxGeometry x="30" width="150" height="30" as="geometry">
            <mxRectangle width="150" height="30" as="alternateBounds" />
          </mxGeometry>
        </mxCell>
        <mxCell id="YwB4W4zjYoKuDJUo0uXH-122" value="" style="shape=tableRow;horizontal=0;startSize=0;swimlaneHead=0;swimlaneBody=0;fillColor=none;collapsible=0;dropTarget=0;points=[[0,0.5],[1,0.5]];portConstraint=eastwest;top=0;left=0;right=0;bottom=0;" vertex="1" parent="YwB4W4zjYoKuDJUo0uXH-118">
          <mxGeometry y="60" width="180" height="30" as="geometry" />
        </mxCell>
        <mxCell id="YwB4W4zjYoKuDJUo0uXH-123" value="" style="shape=partialRectangle;connectable=0;fillColor=none;top=0;left=0;bottom=0;right=0;editable=1;overflow=hidden;whiteSpace=wrap;html=1;" vertex="1" parent="YwB4W4zjYoKuDJUo0uXH-122">
          <mxGeometry width="30" height="30" as="geometry">
            <mxRectangle width="30" height="30" as="alternateBounds" />
          </mxGeometry>
        </mxCell>
        <mxCell id="YwB4W4zjYoKuDJUo0uXH-124" value="menu_texto" style="shape=partialRectangle;connectable=0;fillColor=none;top=0;left=0;bottom=0;right=0;align=left;spacingLeft=6;overflow=hidden;whiteSpace=wrap;html=1;" vertex="1" parent="YwB4W4zjYoKuDJUo0uXH-122">
          <mxGeometry x="30" width="150" height="30" as="geometry">
            <mxRectangle width="150" height="30" as="alternateBounds" />
          </mxGeometry>
        </mxCell>
        <mxCell id="YwB4W4zjYoKuDJUo0uXH-125" value="" style="shape=tableRow;horizontal=0;startSize=0;swimlaneHead=0;swimlaneBody=0;fillColor=none;collapsible=0;dropTarget=0;points=[[0,0.5],[1,0.5]];portConstraint=eastwest;top=0;left=0;right=0;bottom=0;" vertex="1" parent="YwB4W4zjYoKuDJUo0uXH-118">
          <mxGeometry y="90" width="180" height="30" as="geometry" />
        </mxCell>
        <mxCell id="YwB4W4zjYoKuDJUo0uXH-126" value="" style="shape=partialRectangle;connectable=0;fillColor=none;top=0;left=0;bottom=0;right=0;editable=1;overflow=hidden;whiteSpace=wrap;html=1;" vertex="1" parent="YwB4W4zjYoKuDJUo0uXH-125">
          <mxGeometry width="30" height="30" as="geometry">
            <mxRectangle width="30" height="30" as="alternateBounds" />
          </mxGeometry>
        </mxCell>
        <mxCell id="YwB4W4zjYoKuDJUo0uXH-127" value="menu_link" style="shape=partialRectangle;connectable=0;fillColor=none;top=0;left=0;bottom=0;right=0;align=left;spacingLeft=6;overflow=hidden;whiteSpace=wrap;html=1;" vertex="1" parent="YwB4W4zjYoKuDJUo0uXH-125">
          <mxGeometry x="30" width="150" height="30" as="geometry">
            <mxRectangle width="150" height="30" as="alternateBounds" />
          </mxGeometry>
        </mxCell>
        <mxCell id="YwB4W4zjYoKuDJUo0uXH-131" value="Videos" style="shape=table;startSize=20;container=1;collapsible=1;childLayout=tableLayout;fixedRows=1;rowLines=0;fontStyle=1;align=center;resizeLast=1;html=1;" vertex="1" parent="WIyWlLk6GJQsqaUBKTNV-1">
          <mxGeometry x="840" y="75" width="170" height="90" as="geometry" />
        </mxCell>
        <mxCell id="YwB4W4zjYoKuDJUo0uXH-132" value="" style="shape=tableRow;horizontal=0;startSize=0;swimlaneHead=0;swimlaneBody=0;fillColor=none;collapsible=0;dropTarget=0;points=[[0,0.5],[1,0.5]];portConstraint=eastwest;top=0;left=0;right=0;bottom=1;" vertex="1" parent="YwB4W4zjYoKuDJUo0uXH-131">
          <mxGeometry y="20" width="170" height="30" as="geometry" />
        </mxCell>
        <mxCell id="YwB4W4zjYoKuDJUo0uXH-133" value="PK" style="shape=partialRectangle;connectable=0;fillColor=none;top=0;left=0;bottom=0;right=0;fontStyle=1;overflow=hidden;whiteSpace=wrap;html=1;" vertex="1" parent="YwB4W4zjYoKuDJUo0uXH-132">
          <mxGeometry width="30" height="30" as="geometry">
            <mxRectangle width="30" height="30" as="alternateBounds" />
          </mxGeometry>
        </mxCell>
        <mxCell id="YwB4W4zjYoKuDJUo0uXH-134" value="VideoID" style="shape=partialRectangle;connectable=0;fillColor=none;top=0;left=0;bottom=0;right=0;align=left;spacingLeft=6;fontStyle=5;overflow=hidden;whiteSpace=wrap;html=1;" vertex="1" parent="YwB4W4zjYoKuDJUo0uXH-132">
          <mxGeometry x="30" width="140" height="30" as="geometry">
            <mxRectangle width="140" height="30" as="alternateBounds" />
          </mxGeometry>
        </mxCell>
        <mxCell id="YwB4W4zjYoKuDJUo0uXH-135" value="" style="shape=tableRow;horizontal=0;startSize=0;swimlaneHead=0;swimlaneBody=0;fillColor=none;collapsible=0;dropTarget=0;points=[[0,0.5],[1,0.5]];portConstraint=eastwest;top=0;left=0;right=0;bottom=0;" vertex="1" parent="YwB4W4zjYoKuDJUo0uXH-131">
          <mxGeometry y="50" width="170" height="30" as="geometry" />
        </mxCell>
        <mxCell id="YwB4W4zjYoKuDJUo0uXH-136" value="" style="shape=partialRectangle;connectable=0;fillColor=none;top=0;left=0;bottom=0;right=0;editable=1;overflow=hidden;whiteSpace=wrap;html=1;" vertex="1" parent="YwB4W4zjYoKuDJUo0uXH-135">
          <mxGeometry width="30" height="30" as="geometry">
            <mxRectangle width="30" height="30" as="alternateBounds" />
          </mxGeometry>
        </mxCell>
        <mxCell id="YwB4W4zjYoKuDJUo0uXH-137" value="video_arquivo" style="shape=partialRectangle;connectable=0;fillColor=none;top=0;left=0;bottom=0;right=0;align=left;spacingLeft=6;overflow=hidden;whiteSpace=wrap;html=1;" vertex="1" parent="YwB4W4zjYoKuDJUo0uXH-135">
          <mxGeometry x="30" width="140" height="30" as="geometry">
            <mxRectangle width="140" height="30" as="alternateBounds" />
          </mxGeometry>
        </mxCell>
        <mxCell id="YwB4W4zjYoKuDJUo0uXH-146" value="Eventos" style="shape=table;startSize=30;container=1;collapsible=1;childLayout=tableLayout;fixedRows=1;rowLines=0;fontStyle=1;align=center;resizeLast=1;html=1;" vertex="1" parent="WIyWlLk6GJQsqaUBKTNV-1">
          <mxGeometry x="530" y="360" width="180" height="150" as="geometry" />
        </mxCell>
        <mxCell id="YwB4W4zjYoKuDJUo0uXH-147" value="" style="shape=tableRow;horizontal=0;startSize=0;swimlaneHead=0;swimlaneBody=0;fillColor=none;collapsible=0;dropTarget=0;points=[[0,0.5],[1,0.5]];portConstraint=eastwest;top=0;left=0;right=0;bottom=1;" vertex="1" parent="YwB4W4zjYoKuDJUo0uXH-146">
          <mxGeometry y="30" width="180" height="30" as="geometry" />
        </mxCell>
        <mxCell id="YwB4W4zjYoKuDJUo0uXH-148" value="PK" style="shape=partialRectangle;connectable=0;fillColor=none;top=0;left=0;bottom=0;right=0;fontStyle=1;overflow=hidden;whiteSpace=wrap;html=1;" vertex="1" parent="YwB4W4zjYoKuDJUo0uXH-147">
          <mxGeometry width="30" height="30" as="geometry">
            <mxRectangle width="30" height="30" as="alternateBounds" />
          </mxGeometry>
        </mxCell>
        <mxCell id="YwB4W4zjYoKuDJUo0uXH-149" value="EventoID" style="shape=partialRectangle;connectable=0;fillColor=none;top=0;left=0;bottom=0;right=0;align=left;spacingLeft=6;fontStyle=5;overflow=hidden;whiteSpace=wrap;html=1;" vertex="1" parent="YwB4W4zjYoKuDJUo0uXH-147">
          <mxGeometry x="30" width="150" height="30" as="geometry">
            <mxRectangle width="150" height="30" as="alternateBounds" />
          </mxGeometry>
        </mxCell>
        <mxCell id="YwB4W4zjYoKuDJUo0uXH-150" value="" style="shape=tableRow;horizontal=0;startSize=0;swimlaneHead=0;swimlaneBody=0;fillColor=none;collapsible=0;dropTarget=0;points=[[0,0.5],[1,0.5]];portConstraint=eastwest;top=0;left=0;right=0;bottom=0;" vertex="1" parent="YwB4W4zjYoKuDJUo0uXH-146">
          <mxGeometry y="60" width="180" height="30" as="geometry" />
        </mxCell>
        <mxCell id="YwB4W4zjYoKuDJUo0uXH-151" value="" style="shape=partialRectangle;connectable=0;fillColor=none;top=0;left=0;bottom=0;right=0;editable=1;overflow=hidden;whiteSpace=wrap;html=1;" vertex="1" parent="YwB4W4zjYoKuDJUo0uXH-150">
          <mxGeometry width="30" height="30" as="geometry">
            <mxRectangle width="30" height="30" as="alternateBounds" />
          </mxGeometry>
        </mxCell>
        <mxCell id="YwB4W4zjYoKuDJUo0uXH-152" value="evento_local" style="shape=partialRectangle;connectable=0;fillColor=none;top=0;left=0;bottom=0;right=0;align=left;spacingLeft=6;overflow=hidden;whiteSpace=wrap;html=1;" vertex="1" parent="YwB4W4zjYoKuDJUo0uXH-150">
          <mxGeometry x="30" width="150" height="30" as="geometry">
            <mxRectangle width="150" height="30" as="alternateBounds" />
          </mxGeometry>
        </mxCell>
        <mxCell id="YwB4W4zjYoKuDJUo0uXH-153" value="" style="shape=tableRow;horizontal=0;startSize=0;swimlaneHead=0;swimlaneBody=0;fillColor=none;collapsible=0;dropTarget=0;points=[[0,0.5],[1,0.5]];portConstraint=eastwest;top=0;left=0;right=0;bottom=0;" vertex="1" parent="YwB4W4zjYoKuDJUo0uXH-146">
          <mxGeometry y="90" width="180" height="30" as="geometry" />
        </mxCell>
        <mxCell id="YwB4W4zjYoKuDJUo0uXH-154" value="" style="shape=partialRectangle;connectable=0;fillColor=none;top=0;left=0;bottom=0;right=0;editable=1;overflow=hidden;whiteSpace=wrap;html=1;" vertex="1" parent="YwB4W4zjYoKuDJUo0uXH-153">
          <mxGeometry width="30" height="30" as="geometry">
            <mxRectangle width="30" height="30" as="alternateBounds" />
          </mxGeometry>
        </mxCell>
        <mxCell id="YwB4W4zjYoKuDJUo0uXH-155" value="evento_data" style="shape=partialRectangle;connectable=0;fillColor=none;top=0;left=0;bottom=0;right=0;align=left;spacingLeft=6;overflow=hidden;whiteSpace=wrap;html=1;" vertex="1" parent="YwB4W4zjYoKuDJUo0uXH-153">
          <mxGeometry x="30" width="150" height="30" as="geometry">
            <mxRectangle width="150" height="30" as="alternateBounds" />
          </mxGeometry>
        </mxCell>
        <mxCell id="YwB4W4zjYoKuDJUo0uXH-156" value="" style="shape=tableRow;horizontal=0;startSize=0;swimlaneHead=0;swimlaneBody=0;fillColor=none;collapsible=0;dropTarget=0;points=[[0,0.5],[1,0.5]];portConstraint=eastwest;top=0;left=0;right=0;bottom=0;" vertex="1" parent="YwB4W4zjYoKuDJUo0uXH-146">
          <mxGeometry y="120" width="180" height="30" as="geometry" />
        </mxCell>
        <mxCell id="YwB4W4zjYoKuDJUo0uXH-157" value="" style="shape=partialRectangle;connectable=0;fillColor=none;top=0;left=0;bottom=0;right=0;editable=1;overflow=hidden;whiteSpace=wrap;html=1;" vertex="1" parent="YwB4W4zjYoKuDJUo0uXH-156">
          <mxGeometry width="30" height="30" as="geometry">
            <mxRectangle width="30" height="30" as="alternateBounds" />
          </mxGeometry>
        </mxCell>
        <mxCell id="YwB4W4zjYoKuDJUo0uXH-158" value="evento_descricao" style="shape=partialRectangle;connectable=0;fillColor=none;top=0;left=0;bottom=0;right=0;align=left;spacingLeft=6;overflow=hidden;whiteSpace=wrap;html=1;" vertex="1" parent="YwB4W4zjYoKuDJUo0uXH-156">
          <mxGeometry x="30" width="150" height="30" as="geometry">
            <mxRectangle width="150" height="30" as="alternateBounds" />
          </mxGeometry>
        </mxCell>
        <mxCell id="YwB4W4zjYoKuDJUo0uXH-215" style="edgeStyle=orthogonalEdgeStyle;rounded=0;orthogonalLoop=1;jettySize=auto;html=1;" edge="1" parent="WIyWlLk6GJQsqaUBKTNV-1" source="YwB4W4zjYoKuDJUo0uXH-159" target="YwB4W4zjYoKuDJUo0uXH-208">
          <mxGeometry relative="1" as="geometry" />
        </mxCell>
        <mxCell id="YwB4W4zjYoKuDJUo0uXH-159" value="Projetos" style="shape=table;startSize=30;container=1;collapsible=1;childLayout=tableLayout;fixedRows=1;rowLines=0;fontStyle=1;align=center;resizeLast=1;html=1;" vertex="1" parent="WIyWlLk6GJQsqaUBKTNV-1">
          <mxGeometry x="1190" y="90" width="180" height="120" as="geometry" />
        </mxCell>
        <mxCell id="YwB4W4zjYoKuDJUo0uXH-160" value="" style="shape=tableRow;horizontal=0;startSize=0;swimlaneHead=0;swimlaneBody=0;fillColor=none;collapsible=0;dropTarget=0;points=[[0,0.5],[1,0.5]];portConstraint=eastwest;top=0;left=0;right=0;bottom=1;" vertex="1" parent="YwB4W4zjYoKuDJUo0uXH-159">
          <mxGeometry y="30" width="180" height="30" as="geometry" />
        </mxCell>
        <mxCell id="YwB4W4zjYoKuDJUo0uXH-161" value="PK" style="shape=partialRectangle;connectable=0;fillColor=none;top=0;left=0;bottom=0;right=0;fontStyle=1;overflow=hidden;whiteSpace=wrap;html=1;" vertex="1" parent="YwB4W4zjYoKuDJUo0uXH-160">
          <mxGeometry width="30" height="30" as="geometry">
            <mxRectangle width="30" height="30" as="alternateBounds" />
          </mxGeometry>
        </mxCell>
        <mxCell id="YwB4W4zjYoKuDJUo0uXH-162" value="ProjetoID" style="shape=partialRectangle;connectable=0;fillColor=none;top=0;left=0;bottom=0;right=0;align=left;spacingLeft=6;fontStyle=5;overflow=hidden;whiteSpace=wrap;html=1;" vertex="1" parent="YwB4W4zjYoKuDJUo0uXH-160">
          <mxGeometry x="30" width="150" height="30" as="geometry">
            <mxRectangle width="150" height="30" as="alternateBounds" />
          </mxGeometry>
        </mxCell>
        <mxCell id="YwB4W4zjYoKuDJUo0uXH-163" value="" style="shape=tableRow;horizontal=0;startSize=0;swimlaneHead=0;swimlaneBody=0;fillColor=none;collapsible=0;dropTarget=0;points=[[0,0.5],[1,0.5]];portConstraint=eastwest;top=0;left=0;right=0;bottom=0;" vertex="1" parent="YwB4W4zjYoKuDJUo0uXH-159">
          <mxGeometry y="60" width="180" height="20" as="geometry" />
        </mxCell>
        <mxCell id="YwB4W4zjYoKuDJUo0uXH-164" value="" style="shape=partialRectangle;connectable=0;fillColor=none;top=0;left=0;bottom=0;right=0;editable=1;overflow=hidden;whiteSpace=wrap;html=1;" vertex="1" parent="YwB4W4zjYoKuDJUo0uXH-163">
          <mxGeometry width="30" height="20" as="geometry">
            <mxRectangle width="30" height="20" as="alternateBounds" />
          </mxGeometry>
        </mxCell>
        <mxCell id="YwB4W4zjYoKuDJUo0uXH-165" value="projeto_nome" style="shape=partialRectangle;connectable=0;fillColor=none;top=0;left=0;bottom=0;right=0;align=left;spacingLeft=6;overflow=hidden;whiteSpace=wrap;html=1;" vertex="1" parent="YwB4W4zjYoKuDJUo0uXH-163">
          <mxGeometry x="30" width="150" height="20" as="geometry">
            <mxRectangle width="150" height="20" as="alternateBounds" />
          </mxGeometry>
        </mxCell>
        <mxCell id="YwB4W4zjYoKuDJUo0uXH-166" value="" style="shape=tableRow;horizontal=0;startSize=0;swimlaneHead=0;swimlaneBody=0;fillColor=none;collapsible=0;dropTarget=0;points=[[0,0.5],[1,0.5]];portConstraint=eastwest;top=0;left=0;right=0;bottom=0;" vertex="1" parent="YwB4W4zjYoKuDJUo0uXH-159">
          <mxGeometry y="80" width="180" height="40" as="geometry" />
        </mxCell>
        <mxCell id="YwB4W4zjYoKuDJUo0uXH-167" value="" style="shape=partialRectangle;connectable=0;fillColor=none;top=0;left=0;bottom=0;right=0;editable=1;overflow=hidden;whiteSpace=wrap;html=1;" vertex="1" parent="YwB4W4zjYoKuDJUo0uXH-166">
          <mxGeometry width="30" height="40" as="geometry">
            <mxRectangle width="30" height="40" as="alternateBounds" />
          </mxGeometry>
        </mxCell>
        <mxCell id="YwB4W4zjYoKuDJUo0uXH-168" value="projeto_descricao" style="shape=partialRectangle;connectable=0;fillColor=none;top=0;left=0;bottom=0;right=0;align=left;spacingLeft=6;overflow=hidden;whiteSpace=wrap;html=1;" vertex="1" parent="YwB4W4zjYoKuDJUo0uXH-166">
          <mxGeometry x="30" width="150" height="40" as="geometry">
            <mxRectangle width="150" height="40" as="alternateBounds" />
          </mxGeometry>
        </mxCell>
        <mxCell id="YwB4W4zjYoKuDJUo0uXH-172" value="Projetos Integrantes" style="shape=table;startSize=30;container=1;collapsible=1;childLayout=tableLayout;fixedRows=1;rowLines=0;fontStyle=1;align=center;resizeLast=1;html=1;" vertex="1" parent="WIyWlLk6GJQsqaUBKTNV-1">
          <mxGeometry x="1080" y="370" width="180" height="110" as="geometry" />
        </mxCell>
        <mxCell id="YwB4W4zjYoKuDJUo0uXH-173" value="" style="shape=tableRow;horizontal=0;startSize=0;swimlaneHead=0;swimlaneBody=0;fillColor=none;collapsible=0;dropTarget=0;points=[[0,0.5],[1,0.5]];portConstraint=eastwest;top=0;left=0;right=0;bottom=1;" vertex="1" parent="YwB4W4zjYoKuDJUo0uXH-172">
          <mxGeometry y="30" width="180" height="50" as="geometry" />
        </mxCell>
        <mxCell id="YwB4W4zjYoKuDJUo0uXH-174" value="FK" style="shape=partialRectangle;connectable=0;fillColor=none;top=0;left=0;bottom=0;right=0;fontStyle=1;overflow=hidden;whiteSpace=wrap;html=1;" vertex="1" parent="YwB4W4zjYoKuDJUo0uXH-173">
          <mxGeometry width="30" height="50" as="geometry">
            <mxRectangle width="30" height="50" as="alternateBounds" />
          </mxGeometry>
        </mxCell>
        <mxCell id="YwB4W4zjYoKuDJUo0uXH-175" value="ProjetoID" style="shape=partialRectangle;connectable=0;fillColor=none;top=0;left=0;bottom=0;right=0;align=left;spacingLeft=6;fontStyle=5;overflow=hidden;whiteSpace=wrap;html=1;" vertex="1" parent="YwB4W4zjYoKuDJUo0uXH-173">
          <mxGeometry x="30" width="150" height="50" as="geometry">
            <mxRectangle width="150" height="50" as="alternateBounds" />
          </mxGeometry>
        </mxCell>
        <mxCell id="YwB4W4zjYoKuDJUo0uXH-202" value="" style="shape=tableRow;horizontal=0;startSize=0;swimlaneHead=0;swimlaneBody=0;fillColor=none;collapsible=0;dropTarget=0;points=[[0,0.5],[1,0.5]];portConstraint=eastwest;top=0;left=0;right=0;bottom=1;" vertex="1" parent="YwB4W4zjYoKuDJUo0uXH-172">
          <mxGeometry y="80" width="180" height="30" as="geometry" />
        </mxCell>
        <mxCell id="YwB4W4zjYoKuDJUo0uXH-203" value="FK" style="shape=partialRectangle;connectable=0;fillColor=none;top=0;left=0;bottom=0;right=0;fontStyle=1;overflow=hidden;whiteSpace=wrap;html=1;" vertex="1" parent="YwB4W4zjYoKuDJUo0uXH-202">
          <mxGeometry width="30" height="30" as="geometry">
            <mxRectangle width="30" height="30" as="alternateBounds" />
          </mxGeometry>
        </mxCell>
        <mxCell id="YwB4W4zjYoKuDJUo0uXH-204" value="IntegranteID" style="shape=partialRectangle;connectable=0;fillColor=none;top=0;left=0;bottom=0;right=0;align=left;spacingLeft=6;fontStyle=5;overflow=hidden;whiteSpace=wrap;html=1;" vertex="1" parent="YwB4W4zjYoKuDJUo0uXH-202">
          <mxGeometry x="30" width="150" height="30" as="geometry">
            <mxRectangle width="150" height="30" as="alternateBounds" />
          </mxGeometry>
        </mxCell>
        <mxCell id="YwB4W4zjYoKuDJUo0uXH-207" value="Projetos Midia" style="shape=table;startSize=30;container=1;collapsible=1;childLayout=tableLayout;fixedRows=1;rowLines=0;fontStyle=1;align=center;resizeLast=1;html=1;" vertex="1" parent="WIyWlLk6GJQsqaUBKTNV-1">
          <mxGeometry x="1050" y="610" width="180" height="90" as="geometry" />
        </mxCell>
        <mxCell id="YwB4W4zjYoKuDJUo0uXH-208" value="" style="shape=tableRow;horizontal=0;startSize=0;swimlaneHead=0;swimlaneBody=0;fillColor=none;collapsible=0;dropTarget=0;points=[[0,0.5],[1,0.5]];portConstraint=eastwest;top=0;left=0;right=0;bottom=1;" vertex="1" parent="YwB4W4zjYoKuDJUo0uXH-207">
          <mxGeometry y="30" width="180" height="30" as="geometry" />
        </mxCell>
        <mxCell id="YwB4W4zjYoKuDJUo0uXH-209" value="FK" style="shape=partialRectangle;connectable=0;fillColor=none;top=0;left=0;bottom=0;right=0;fontStyle=1;overflow=hidden;whiteSpace=wrap;html=1;" vertex="1" parent="YwB4W4zjYoKuDJUo0uXH-208">
          <mxGeometry width="30" height="30" as="geometry">
            <mxRectangle width="30" height="30" as="alternateBounds" />
          </mxGeometry>
        </mxCell>
        <mxCell id="YwB4W4zjYoKuDJUo0uXH-210" value="ProjetoID" style="shape=partialRectangle;connectable=0;fillColor=none;top=0;left=0;bottom=0;right=0;align=left;spacingLeft=6;fontStyle=5;overflow=hidden;whiteSpace=wrap;html=1;" vertex="1" parent="YwB4W4zjYoKuDJUo0uXH-208">
          <mxGeometry x="30" width="150" height="30" as="geometry">
            <mxRectangle width="150" height="30" as="alternateBounds" />
          </mxGeometry>
        </mxCell>
        <mxCell id="YwB4W4zjYoKuDJUo0uXH-211" value="" style="shape=tableRow;horizontal=0;startSize=0;swimlaneHead=0;swimlaneBody=0;fillColor=none;collapsible=0;dropTarget=0;points=[[0,0.5],[1,0.5]];portConstraint=eastwest;top=0;left=0;right=0;bottom=1;" vertex="1" parent="YwB4W4zjYoKuDJUo0uXH-207">
          <mxGeometry y="60" width="180" height="30" as="geometry" />
        </mxCell>
        <mxCell id="YwB4W4zjYoKuDJUo0uXH-212" value="FK" style="shape=partialRectangle;connectable=0;fillColor=none;top=0;left=0;bottom=0;right=0;fontStyle=1;overflow=hidden;whiteSpace=wrap;html=1;" vertex="1" parent="YwB4W4zjYoKuDJUo0uXH-211">
          <mxGeometry width="30" height="30" as="geometry">
            <mxRectangle width="30" height="30" as="alternateBounds" />
          </mxGeometry>
        </mxCell>
        <mxCell id="YwB4W4zjYoKuDJUo0uXH-213" value="MidiaID" style="shape=partialRectangle;connectable=0;fillColor=none;top=0;left=0;bottom=0;right=0;align=left;spacingLeft=6;fontStyle=5;overflow=hidden;whiteSpace=wrap;html=1;" vertex="1" parent="YwB4W4zjYoKuDJUo0uXH-211">
          <mxGeometry x="30" width="150" height="30" as="geometry">
            <mxRectangle width="150" height="30" as="alternateBounds" />
          </mxGeometry>
        </mxCell>
        <mxCell id="YwB4W4zjYoKuDJUo0uXH-216" style="edgeStyle=orthogonalEdgeStyle;rounded=0;orthogonalLoop=1;jettySize=auto;html=1;entryX=0;entryY=0.5;entryDx=0;entryDy=0;" edge="1" parent="WIyWlLk6GJQsqaUBKTNV-1" target="YwB4W4zjYoKuDJUo0uXH-211">
          <mxGeometry relative="1" as="geometry">
            <mxPoint x="380" y="585" as="sourcePoint" />
            <mxPoint x="987.8400000000001" y="771.52" as="targetPoint" />
          </mxGeometry>
        </mxCell>
        <mxCell id="YwB4W4zjYoKuDJUo0uXH-217" style="edgeStyle=orthogonalEdgeStyle;rounded=0;orthogonalLoop=1;jettySize=auto;html=1;" edge="1" parent="WIyWlLk6GJQsqaUBKTNV-1" source="YwB4W4zjYoKuDJUo0uXH-70" target="YwB4W4zjYoKuDJUo0uXH-202">
          <mxGeometry relative="1" as="geometry" />
        </mxCell>
        <mxCell id="YwB4W4zjYoKuDJUo0uXH-218" style="edgeStyle=orthogonalEdgeStyle;rounded=0;orthogonalLoop=1;jettySize=auto;html=1;exitX=0;exitY=0.5;exitDx=0;exitDy=0;" edge="1" parent="WIyWlLk6GJQsqaUBKTNV-1" source="YwB4W4zjYoKuDJUo0uXH-163" target="YwB4W4zjYoKuDJUo0uXH-172">
          <mxGeometry relative="1" as="geometry">
            <Array as="points">
              <mxPoint x="1050" y="160" />
              <mxPoint x="1050" y="425" />
            </Array>
          </mxGeometry>
        </mxCell>
      </root>
    </mxGraphModel>
  </diagram>
</mxfile>
